<svg width="382" height="96" xmlns="http://www.w3.org/2000/svg" xmlns:xlink="http://www.w3.org/1999/xlink" xml:space="preserve" overflow="hidden"><defs><clipPath id="clip0"><rect x="0" y="0" width="382" height="96"/></clipPath><clipPath id="clip1"><rect x="0" y="0" width="382" height="95"/></clipPath><clipPath id="clip2"><rect x="0" y="0" width="382" height="95"/></clipPath><clipPath id="clip3"><rect x="0" y="0" width="382" height="95"/></clipPath></defs><g clip-path="url(#clip0)"><g clip-path="url(#clip1)"><g clip-path="url(#clip2)"><g clip-path="url(#clip3)"><path d="M36.585 21.7921 34.2645 20.5855C33.5564 20.2175 33.1213 19.5297 33.0713 18.6985 33.0662 18.6149 33.0685 18.5316 33.078 18.4503 33.1768 17.5912 33.6714 16.9175 34.4349 16.6002 34.819 16.441 35.2265 16.3938 35.6388 16.4603 36.2503 16.5584 36.8086 16.9254 37.1316 17.442 37.4872 18.0104 37.5743 18.6668 37.377 19.2907L36.585 21.7921" fill="#59C2BB" fill-rule="nonzero" fill-opacity="1" transform="matrix(1.00526 0 0 -1 0 95)"/><path d="M21.4711 36.7193 18.9769 37.5065C18.2162 37.7472 17.4222 37.5686 16.7989 37.0163 16.7363 36.9609 16.6791 36.9004 16.6281 36.8358 16.0902 36.1588 15.9638 35.3326 16.2794 34.5685 16.4384 34.1841 16.693 33.8627 17.0317 33.6179 17.5335 33.255 18.1879 33.1198 18.7816 33.2566 19.4349 33.407 19.9606 33.8098 20.2623 34.3902L21.4711 36.7193" fill="#59C2BB" fill-rule="nonzero" fill-opacity="1" transform="matrix(1.00526 0 0 -1 0 95)"/><path d="M21.3389 57.9616 20.1322 60.2818C19.7643 60.9902 19.0765 61.4249 18.245 61.475 18.1615 61.48 18.0785 61.4781 17.9969 61.4683 17.1377 61.3698 16.4642 60.8752 16.147 60.1117 15.9878 59.7276 15.9403 59.3201 16.0068 58.9075 16.1052 58.296 16.4722 57.738 16.9887 57.4147 17.5572 57.0591 18.2136 56.9723 18.8373 57.1693L21.3389 57.9616" fill="#59C2BB" fill-rule="nonzero" fill-opacity="1" transform="matrix(1.00526 0 0 -1 0 95)"/><path d="M36.2658 73.0754 37.0534 75.5698C37.2941 76.3304 37.1155 77.1243 36.5629 77.7475 36.5075 77.8102 36.447 77.8675 36.3827 77.9185 35.7053 78.4562 34.8795 78.5825 34.115 78.2671 33.7309 78.1082 33.4092 77.8536 33.1644 77.5147 32.8015 77.0128 32.6666 76.3586 32.8034 75.7648 32.9538 75.1116 33.3563 74.5859 33.9368 74.2841L36.2658 73.0754" fill="#59C2BB" fill-rule="nonzero" fill-opacity="1" transform="matrix(1.00526 0 0 -1 0 95)"/><path d="M57.5081 73.2075 59.8286 74.4146C60.5367 74.7822 60.9715 75.47 61.0218 76.3013 61.0269 76.3849 61.0247 76.4678 61.0152 76.5495 60.9164 77.409 60.4221 78.0822 59.6583 78.3995 59.2742 78.5585 58.8666 78.606 58.4543 78.5398 57.8428 78.4416 57.2845 78.0743 56.9615 77.5578 56.6059 76.9894 56.5188 76.3329 56.7161 75.7091L57.5081 73.2075" fill="#59C2BB" fill-rule="nonzero" fill-opacity="1" transform="matrix(1.00526 0 0 -1 0 95)"/><path d="M72.6219 58.2805 75.1163 57.4932C75.8769 57.2522 76.6708 57.4312 77.2943 57.9834 77.357 58.0392 77.414 58.0993 77.465 58.1639 78.003 58.8413 78.1294 59.6671 77.8137 60.4312 77.6547 60.8154 77.4001 61.1371 77.0616 61.3819 76.5597 61.7448 75.9054 61.88 75.3117 61.7432 74.6581 61.5925 74.1324 61.19 73.831 60.6095L72.6219 58.2805" fill="#59C2BB" fill-rule="nonzero" fill-opacity="1" transform="matrix(1.00526 0 0 -1 0 95)"/><path d="M72.7543 37.0385 73.9611 34.718C74.3288 34.0096 75.0166 33.5748 75.8478 33.5245 75.9314 33.5197 76.0147 33.5216 76.0964 33.5314 76.9555 33.6299 77.6291 34.1245 77.946 34.888 78.1053 35.2725 78.1528 35.6797 78.0863 36.0923 77.9882 36.7038 77.6211 37.2618 77.1043 37.5848 76.5359 37.9407 75.8798 38.0278 75.256 37.8305L72.7543 37.0385" fill="#59C2BB" fill-rule="nonzero" fill-opacity="1" transform="matrix(1.00526 0 0 -1 0 95)"/><path d="M57.8273 21.9244 57.0398 19.43C56.7991 18.6693 56.978 17.8754 57.5303 17.252 57.5857 17.1896 57.6462 17.1326 57.7105 17.0813 58.3878 16.5436 59.2137 16.4173 59.9781 16.7329 60.3622 16.8919 60.6839 17.1462 60.9284 17.485 61.2916 17.987 61.4265 18.6412 61.2897 19.235 61.1393 19.8885 60.7368 20.4138 60.1561 20.7156L57.8273 21.9244" fill="#59C2BB" fill-rule="nonzero" fill-opacity="1" transform="matrix(1.00526 0 0 -1 0 95)"/><path d="M47.2649 37.6395C41.8281 37.6395 37.4049 42.0627 37.4049 47.4999 37.4049 52.937 41.8281 57.3602 47.2649 57.3602 52.7021 57.3602 57.1253 52.937 57.1253 47.4999 57.1253 42.0627 52.7021 37.6395 47.2649 37.6395ZM62.0266 41.3733C60.3568 42.9294 59.3818 45.1192 59.384 47.4891 59.3863 49.859 60.3647 52.0469 62.0374 53.6001 59.2694 53.4969 56.5891 54.8269 54.9463 57.1192 53.8497 58.6494 53.3205 60.4423 53.393 62.2619 51.8388 60.5931 49.6513 59.6181 47.2839 59.6181 44.9108 59.6181 42.7195 60.5972 41.1643 62.2723 41.2337 60.456 40.703 58.6668 39.6073 57.1405 38.0256 54.9365 35.4916 53.6207 32.8291 53.6201L32.8278 53.6201C32.7201 53.6201 32.6122 53.6223 32.5045 53.6264 34.1743 52.0706 35.1493 49.8806 35.1474 47.5103 35.1455 45.1407 34.167 42.9529 32.4947 41.3999 35.2604 41.5016 37.9432 40.1735 39.5861 37.8808 40.6827 36.3504 41.2118 34.5574 41.139 32.7375 42.6935 34.4061 44.8807 35.3811 47.2478 35.3811 49.6212 35.3811 51.8126 34.4023 53.3671 32.7271 53.2977 34.5441 53.8284 36.3333 54.9244 37.8606 56.5708 40.1535 59.2571 41.481 62.0266 41.3733" fill="#F68434" fill-rule="nonzero" fill-opacity="1" transform="matrix(1.00526 0 0 -1 0 95)"/><path d="M43.6546 68.7754C43.6546 66.9052 45.1762 65.3836 47.0464 65.3836 48.917 65.3836 50.4385 66.9052 50.4385 68.7754 50.4385 70.6459 48.917 72.1675 47.0464 72.1675 45.1762 72.1675 43.6546 70.6459 43.6546 68.7754" fill="#59C2BB" fill-rule="nonzero" fill-opacity="1" transform="matrix(1.00526 0 0 -1 0 95)"/><path d="M47.0464 50.8917C45.1762 50.8917 43.6546 49.3701 43.6546 47.4999 43.6546 45.6297 45.1762 44.1078 47.0464 44.1078 48.917 44.1078 50.4385 45.6297 50.4385 47.4999 50.4385 49.3701 48.917 50.8917 47.0464 50.8917" fill="#F68434" fill-rule="nonzero" fill-opacity="1" transform="matrix(1.00526 0 0 -1 0 95)"/><path d="M71.7141 47.4999C71.7141 49.3701 70.1925 50.8917 68.3223 50.8917 66.452 50.8917 64.9301 49.3701 64.9301 47.4999 64.9301 45.6297 66.452 44.1078 68.3223 44.1078 70.1925 44.1078 71.7141 45.6297 71.7141 47.4999" fill="#59C2BB" fill-rule="nonzero" fill-opacity="1" transform="matrix(1.00526 0 0 -1 0 95)"/><path d="M47.0464 22.8326C48.917 22.8326 50.4385 24.3538 50.4385 26.224 50.4385 28.0946 48.917 29.6162 47.0464 29.6162 45.1762 29.6162 43.6546 28.0946 43.6546 26.224 43.6546 24.3538 45.1762 22.8326 47.0464 22.8326" fill="#59C2BB" fill-rule="nonzero" fill-opacity="1" transform="matrix(1.00526 0 0 -1 0 95)"/><path d="M26.1678 50.8518C24.3196 50.8518 22.8159 49.3483 22.8159 47.4999 22.8159 45.6515 24.3196 44.148 26.1678 44.148 28.0164 44.148 29.5202 45.6515 29.5202 47.4999 29.5202 49.3483 28.0164 50.8518 26.1678 50.8518" fill="#59C2BB" fill-rule="nonzero" fill-opacity="1" transform="matrix(1.00526 0 0 -1 0 95)"/><path d="M59.6922 60.1456C60.3328 59.505 61.1849 59.1522 62.0909 59.1522 62.9969 59.1522 63.8484 59.505 64.4893 60.1456 65.8117 61.468 65.8117 63.6201 64.4893 64.9425 63.8484 65.5831 62.9969 65.9362 62.0909 65.9362 61.1849 65.9362 60.3328 65.5831 59.6922 64.9425 58.3701 63.6201 58.3701 61.468 59.6922 60.1456" fill="#59C2BB" fill-rule="nonzero" fill-opacity="1" transform="matrix(1.00526 0 0 -1 0 95)"/><path d="M62.0909 35.8478C61.1849 35.8478 60.3328 35.4948 59.6922 34.8541 58.3701 33.5317 58.3701 31.3797 59.6922 30.0573 60.3328 29.4166 61.1849 29.0639 62.0909 29.0639 62.9969 29.0639 63.8484 29.4166 64.4893 30.0573 65.8117 31.3797 65.8117 33.5317 64.4893 34.8541 63.8484 35.4948 62.9969 35.8478 62.0909 35.8478" fill="#59C2BB" fill-rule="nonzero" fill-opacity="1" transform="matrix(1.00526 0 0 -1 0 95)"/><path d="M34.401 34.8541C33.7604 35.4948 32.9082 35.8478 32.0026 35.8478 31.0965 35.8478 30.2447 35.4948 29.6038 34.8541 28.2817 33.5317 28.2817 31.3797 29.604 30.0573 30.2447 29.4166 31.0965 29.0639 32.0026 29.0639 32.9082 29.0639 33.7604 29.4166 34.401 30.0573 35.7234 31.3797 35.7234 33.5317 34.401 34.8541" fill="#59C2BB" fill-rule="nonzero" fill-opacity="1" transform="matrix(1.00526 0 0 -1 0 95)"/><path d="M32.3471 59.0655C33.2426 59.0655 34.0843 59.4144 34.7177 60.0475 36.0245 61.3543 36.0245 63.4811 34.7177 64.7883 34.0843 65.4213 33.2426 65.7699 32.3471 65.7699 31.4517 65.7699 30.61 65.4213 29.9768 64.7883 28.6696 63.4811 28.6696 61.3543 29.9768 60.0475 30.61 59.4144 31.4517 59.0655 32.3471 59.0655" fill="#59C2BB" fill-rule="nonzero" fill-opacity="1" transform="matrix(1.00526 0 0 -1 0 95)"/><path d="M47.2649 76.4267C49.9186 76.4267 52.077 78.5851 52.077 81.2384 52.077 83.8918 49.9186 86.0505 47.2649 86.0505 44.6116 86.0505 42.4532 83.8918 42.4532 81.2384 42.4532 78.5851 44.6116 76.4267 47.2649 76.4267" fill="#59C2BB" fill-rule="nonzero" fill-opacity="1" transform="matrix(1.00526 0 0 -1 0 95)"/><path d="M81.0038 52.3119C78.3504 52.3119 76.1917 50.1532 76.1917 47.4999 76.1917 44.8465 78.3504 42.6881 81.0038 42.6881 83.6571 42.6881 85.8158 44.8465 85.8158 47.4999 85.8158 50.1532 83.6571 52.3119 81.0038 52.3119" fill="#59C2BB" fill-rule="nonzero" fill-opacity="1" transform="matrix(1.00526 0 0 -1 0 95)"/><path d="M47.2649 18.5731C44.6116 18.5731 42.4532 16.4147 42.4532 13.7613 42.4532 11.108 44.6116 8.94964 47.2649 8.94964 49.9186 8.94964 52.077 11.108 52.077 13.7613 52.077 16.4147 49.9186 18.5731 47.2649 18.5731" fill="#59C2BB" fill-rule="nonzero" fill-opacity="1" transform="matrix(1.00526 0 0 -1 0 95)"/><path d="M18.3383 47.4999C18.3383 50.1532 16.1797 52.3119 13.5263 52.3119 10.8731 52.3119 8.71449 50.1532 8.71449 47.4999 8.71449 44.8465 10.8731 42.6881 13.5263 42.6881 16.1797 42.6881 18.3383 44.8465 18.3383 47.4999" fill="#59C2BB" fill-rule="nonzero" fill-opacity="1" transform="matrix(1.00526 0 0 -1 0 95)"/><path d="M71.1219 66.5448C72.4069 66.5448 73.6156 67.0454 74.5245 67.9543 76.4007 69.8302 76.4004 72.8832 74.5245 74.7594 73.6156 75.6683 72.4069 76.1686 71.1219 76.1686 69.8365 76.1686 68.6281 75.6683 67.7193 74.7594 65.8434 72.8832 65.8431 69.8302 67.7193 67.954 68.6281 67.0454 69.8365 66.5448 71.1219 66.5448" fill="#59C2BB" fill-rule="nonzero" fill-opacity="1" transform="matrix(1.00526 0 0 -1 0 95)"/><path d="M71.1219 28.4546C69.8365 28.4546 68.6281 27.9543 67.7193 27.0459 65.8431 25.1692 65.8431 22.1169 67.7193 20.2407 68.6281 19.3318 69.8365 18.8312 71.1219 18.8312 72.4069 18.8312 73.6153 19.3318 74.5245 20.2407 76.4007 22.1169 76.4007 25.1692 74.5245 27.0459 73.6156 27.9543 72.4069 28.4546 71.1219 28.4546" fill="#59C2BB" fill-rule="nonzero" fill-opacity="1" transform="matrix(1.00526 0 0 -1 0 95)"/><path d="M23.4083 28.4546C22.1229 28.4546 20.9147 27.9543 20.0057 27.0459 18.1296 25.1692 18.1296 22.1169 20.0057 20.2407 20.9147 19.3318 22.1229 18.8312 23.4083 18.8312 24.6936 18.8312 25.902 19.3318 26.8107 20.2407 28.687 22.1169 28.687 25.1692 26.8108 27.0459 25.902 27.9543 24.6936 28.4546 23.4083 28.4546" fill="#59C2BB" fill-rule="nonzero" fill-opacity="1" transform="matrix(1.00526 0 0 -1 0 95)"/><path d="M23.4083 66.5448C24.6936 66.5448 25.902 67.0454 26.8108 67.954 28.687 69.8302 28.6867 72.8832 26.8107 74.7594 25.902 75.6683 24.6936 76.1686 23.4083 76.1686 22.1229 76.1686 20.9147 75.6683 20.0057 74.7594 18.1298 72.8832 18.1296 69.8302 20.0057 67.954 20.9147 67.0454 22.1229 66.5448 23.4083 66.5448" fill="#59C2BB" fill-rule="nonzero" fill-opacity="1" transform="matrix(1.00526 0 0 -1 0 95)"/><path d="M121.66 62.3724 121.66 57.4565C118.233 59.137 115.08 59.9768 112.202 59.9768 107.854 59.9768 104.312 58.3235 101.578 55.0172 100.221 53.3759 99.3818 51.349 99.1623 49.2308 98.7203 44.9637 99.985 41.4706 102.957 38.7498 105.544 36.3817 108.784 35.1974 112.677 35.1974 115.505 35.1974 118.499 36.0872 121.66 37.8675L121.66 32.9029C121.66 32.9022 121.66 32.9013 121.66 32.9013 118.781 31.3708 115.662 30.6058 112.302 30.6058 107.378 30.6058 103.169 32.2724 99.6753 35.6053 96.1819 38.9385 94.4352 42.9573 94.4352 47.6623 94.4352 52.2831 96.1527 56.2395 99.5882 59.5313 103.023 62.823 107.162 64.4687 112.003 64.4687 115.113 64.4687 118.333 63.7699 121.66 62.3724" fill="#F68434" fill-rule="nonzero" fill-opacity="1" transform="matrix(1.00526 0 0 -1 0 95)"/><path d="M155.947 47.5623C155.947 51.069 154.683 54.0229 152.154 56.4245 149.625 58.8261 146.514 60.0269 142.821 60.0269 139.311 60.0269 136.304 58.8052 133.801 56.3621 131.296 53.919 130.045 50.9857 130.045 47.5623 130.045 44.0888 131.33 41.1507 133.9 38.7495 136.47 36.3482 139.618 35.1474 143.345 35.1474 146.772 35.1474 149.729 36.3732 152.217 38.8245 154.703 41.2758 155.947 44.1885 155.947 47.5623ZM125.503 47.7621C125.503 52.3499 127.233 56.2813 130.693 59.5563 134.154 62.8313 138.313 64.4687 143.171 64.4687 147.912 64.4687 151.996 62.8186 155.423 59.5189 158.85 56.219 160.564 52.2999 160.564 47.7621 160.564 42.9573 158.871 38.897 155.485 35.5803 152.1 32.2638 147.945 30.6058 143.021 30.6058 138.163 30.6058 134.029 32.2765 130.619 35.6179 127.208 38.9591 125.503 43.0073 125.503 47.7621" fill="#F68434" fill-rule="nonzero" fill-opacity="1" transform="matrix(1.00526 0 0 -1 0 95)"/><path d="M302.301 47.5623C302.301 51.069 301.036 54.0229 298.508 56.4245 295.979 58.8261 292.868 60.0269 289.175 60.0269 285.665 60.0269 282.658 58.8052 280.154 56.3621 277.65 53.919 276.398 50.9857 276.398 47.5623 276.398 44.0888 277.683 41.1507 280.254 38.7495 282.824 36.3482 285.972 35.1474 289.699 35.1474 293.126 35.1474 296.083 36.3732 298.57 38.8245 301.057 41.2758 302.301 44.1885 302.301 47.5623ZM271.857 47.7621C271.857 52.3499 273.587 56.2813 277.047 59.5563 280.507 62.8313 284.666 64.4687 289.524 64.4687 294.266 64.4687 298.349 62.8186 301.777 59.5189 305.204 56.219 306.917 52.2999 306.917 47.7621 306.917 42.9573 305.224 38.897 301.839 35.5803 298.453 32.2638 294.299 30.6058 289.374 30.6058 284.517 30.6058 280.383 32.2765 276.972 35.6179 273.562 38.9591 271.857 43.0073 271.857 47.7621" fill="#59C2BB" fill-rule="nonzero" fill-opacity="1" transform="matrix(1.00526 0 0 -1 0 95)"/><path d="M162.56 63.4209 167.144 63.4209 177.127 40.9044 187.184 63.4209 191.806 63.4209 177.071 30.6058 162.56 63.4209" fill="#F68434" fill-rule="nonzero" fill-opacity="1" transform="matrix(1.00526 0 0 -1 0 95)"/><path d="M198.483 32.046 198.483 63.2268C198.483 63.438 198.654 63.609 198.866 63.609L203.137 63.609C203.348 63.609 203.519 63.438 203.519 63.2268L203.519 32.046C203.519 31.8347 203.348 31.6634 203.137 31.6634L198.866 31.6634C198.654 31.6634 198.483 31.8347 198.483 32.046" fill="#59C2BB" fill-rule="nonzero" fill-opacity="1" transform="matrix(1.00526 0 0 -1 0 95)"/><path d="M234.777 31.8252 218.113 55.421C217.898 55.7256 217.418 55.5733 217.418 55.2002L217.418 32.046C217.418 31.8347 217.247 31.6634 217.036 31.6634L212.765 31.6634C212.553 31.6634 212.382 31.8347 212.382 32.046L212.382 63.2268C212.382 63.438 212.553 63.609 212.765 63.609L217.71 63.609C217.834 63.609 217.95 63.5495 218.021 63.4488L234.732 40.0282C234.948 39.7251 235.425 39.8781 235.425 40.2501L235.425 63.2268C235.425 63.438 235.597 63.609 235.808 63.609L239.922 63.609C240.133 63.609 240.304 63.438 240.304 63.2268L240.304 32.046C240.304 31.8347 240.133 31.6634 239.922 31.6634L235.09 31.6634C234.966 31.6634 234.849 31.7239 234.777 31.8252" fill="#59C2BB" fill-rule="nonzero" fill-opacity="1" transform="matrix(1.00526 0 0 -1 0 95)"/><path d="M249.612 32.046 249.612 63.2268C249.612 63.438 249.783 63.609 249.994 63.609L266.179 63.609C266.39 63.609 266.561 63.438 266.561 63.2268L266.561 59.7134C266.561 59.5022 266.39 59.3312 266.179 59.3312L254.978 59.3312C254.767 59.3312 254.596 59.1598 254.596 58.9486L254.596 50.354C254.596 50.1428 254.767 49.9715 254.978 49.9715L266.179 49.9715C266.39 49.9715 266.561 49.8005 266.561 49.5892L266.561 46.0236C266.561 45.8124 266.39 45.6411 266.179 45.6411L255.03 45.6411C254.819 45.6411 254.648 45.4701 254.648 45.2588L254.648 32.046C254.648 31.8347 254.477 31.6634 254.265 31.6634L249.994 31.6634C249.783 31.6634 249.612 31.8347 249.612 32.046" fill="#59C2BB" fill-rule="nonzero" fill-opacity="1" transform="matrix(1.00526 0 0 -1 0 95)"/><path d="M317.99 48.9432C317.99 48.732 318.164 48.5607 318.373 48.5607L320.77 48.5607C326.837 48.5607 327.743 52.2619 327.743 54.4684 327.743 56.1176 327.059 57.5046 325.767 58.4793 324.557 59.3913 322.911 59.8533 320.874 59.8533L318.373 59.8533C318.164 59.8533 317.99 59.6823 317.99 59.4711ZM329.348 31.8332 320.697 44.7658C320.627 44.8719 320.507 44.9355 320.38 44.9355L318.322 44.9355C318.11 44.9355 317.939 44.7642 317.939 44.553L317.939 32.046C317.939 31.8347 317.768 31.6634 317.556 31.6634L313.285 31.6634C313.074 31.6634 312.903 31.8347 312.903 32.046L312.903 63.2268C312.903 63.438 313.074 63.609 313.285 63.609L323.025 63.609C326.141 63.609 328.617 62.7983 330.381 61.1988 332.135 59.6073 332.987 57.4932 332.987 54.7347 332.987 53.1635 332.566 51.4908 331.73 49.7631 330.944 48.1348 329.437 46.8232 327.255 45.8649L326.381 45.4824C326.163 45.3865 326.087 45.117 326.22 44.9191L334.716 32.2591C334.887 32.0048 334.706 31.6634 334.399 31.6634L329.665 31.6634C329.538 31.6634 329.418 31.7271 329.348 31.8332" fill="#59C2BB" fill-rule="nonzero" fill-opacity="1" transform="matrix(1.00526 0 0 -1 0 95)"/><path d="M366.607 63.4294 356.411 47.106C356.262 46.8662 355.913 46.8662 355.765 47.106L345.568 63.4294C345.495 63.5412 345.375 63.609 345.242 63.609L341.274 63.609C341.062 63.609 340.891 63.438 340.891 63.2268L340.891 32.046C340.891 31.8347 341.062 31.6634 341.274 31.6634L345.429 31.6634C345.638 31.6634 345.812 31.8347 345.812 32.046L345.812 53.7952C345.812 54.0321 346.119 54.1236 346.249 53.9244L354.606 41.0111C354.675 40.9021 354.796 40.8363 354.925 40.8363L357.25 40.8363C357.38 40.8363 357.5 40.9021 357.57 41.0111L365.926 53.9244C366.056 54.1236 366.363 54.0321 366.363 53.7952L366.363 32.046C366.363 31.8347 366.534 31.6634 366.747 31.6634L370.901 31.6634C371.113 31.6634 371.284 31.8347 371.284 32.046L371.284 63.2268C371.284 63.438 371.113 63.609 370.901 63.609L366.933 63.609C366.8 63.609 366.677 63.5412 366.607 63.4294" fill="#59C2BB" fill-rule="nonzero" fill-opacity="1" transform="matrix(1.00526 0 0 -1 0 95)"/></g></g></g></g></svg>